<?xml version="1.0" standalone="no"?>
<!DOCTYPE svg PUBLIC "-//W3C//DTD SVG 20010904//EN"
 "http://www.w3.org/TR/2001/REC-SVG-20010904/DTD/svg10.dtd">
<svg version="1.0" xmlns="http://www.w3.org/2000/svg"
 width="88.000000pt" height="88.000000pt" viewBox="0 0 88.000000 88.000000"
 preserveAspectRatio="xMidYMid meet">
<metadata>
Created by potrace 1.16, written by Peter Selinger 2001-2019
</metadata>
<g transform="translate(0.000000,88.000000) scale(0.100000,-0.100000)"
fill="#000000" stroke="none">
<path d="M0 440 l0 -440 440 0 440 0 0 440 0 440 -440 0 -440 0 0 -440z m608
28 l-3 -223 -111 -3 -110 -3 -49 -49 c-27 -28 -52 -50 -55 -50 -3 0 -4 124 -2
275 l3 275 165 0 164 0 -2 -222z"/>
<path d="M330 465 l0 -165 110 0 110 0 0 165 0 165 -110 0 -110 0 0 -165z"/>
</g>
</svg>
